HIERARCHY
ROOT Hips
{
	OFFSET 0.000000 0.000000 0.000000
	CHANNELS 6 Xposition Yposition Zposition Xrotation Yrotation Zrotation
	JOINT LeftUpLeg_virtual
	{
		OFFSET 0.000000 0.000000 0.000000
		CHANNELS 3 Xrotation Yrotation Zrotation
		JOINT LeftUpLeg
		{
			OFFSET 10.205400 -3.823500 0.155100
			CHANNELS 3 Xrotation Yrotation Zrotation
			JOINT LeftLeg
			{
				OFFSET 0.708757 -12.982077 0.567790
				CHANNELS 3 Xrotation Yrotation Zrotation
				JOINT LeftFoot
				{
					OFFSET -0.708756 -10.717838 -2.184338
					CHANNELS 3 Xrotation Yrotation Zrotation
					JOINT LeftToeBase
					{
						OFFSET 0.108149 -7.191104 7.560241
						CHANNELS 3 Xrotation Yrotation Zrotation
						JOINT LeftToe_End
						{
							OFFSET 0.070230 0.081724 4.490308
							CHANNELS 3 Xrotation Yrotation Zrotation
							End Site
							{
								OFFSET 0 0 0
							}
						}
					}
				}
			}
		}
	}
	JOINT RightUpLeg_virtual
	{
		OFFSET 0.000000 0.000000 0.000000
		CHANNELS 3 Xrotation Yrotation Zrotation
		JOINT RightUpLeg
		{
			OFFSET -10.205400 -3.823500 0.005500
			CHANNELS 3 Xrotation Yrotation Zrotation
			JOINT RightLeg
			{
				OFFSET -0.708756 -12.982134 0.610632
				CHANNELS 3 Xrotation Yrotation Zrotation
				JOINT RightFoot
				{
					OFFSET 0.708754 -10.717769 -1.945823
					CHANNELS 3 Xrotation Yrotation Zrotation
					JOINT RightToeBase
					{
						OFFSET -0.108140 -7.191069 7.372968
						CHANNELS 3 Xrotation Yrotation Zrotation
						JOINT RightToe_End
						{
							OFFSET -0.070227 0.081735 4.479403
							CHANNELS 3 Xrotation Yrotation Zrotation
							End Site
							{
								OFFSET 0 0 0
							}
						}
					}
				}
			}
		}
	}
	JOINT Spine_virtual
	{
		OFFSET 0.000000 0.000000 0.000000
		CHANNELS 3 Xrotation Yrotation Zrotation
		JOINT Spine
		{
			OFFSET 0.000000 6.876099 0.125700
			CHANNELS 3 Xrotation Yrotation Zrotation
			JOINT Spine1
			{
				OFFSET 0.000000 5.730043 0.104720
				CHANNELS 3 Xrotation Yrotation Zrotation
				JOINT Spine1_split
				{
					OFFSET 0.000000 5.730043 0.104720
					CHANNELS 3 Xrotation Yrotation Zrotation
					JOINT Spine2
					{
						OFFSET 0.000000 5.730043 0.104720
						CHANNELS 3 Xrotation Yrotation Zrotation
						JOINT Neck_virtual
						{
							OFFSET 0.000000 0.000000 0.000000
							CHANNELS 3 Xrotation Yrotation Zrotation
							JOINT Neck
							{
								OFFSET 0.000000 10.314075 0.188496
								CHANNELS 3 Xrotation Yrotation Zrotation
								JOINT Head
								{
									OFFSET 0.000000 7.643700 -2.377400
									CHANNELS 3 Xrotation Yrotation Zrotation
									JOINT HeadTop_End
									{
										OFFSET 0.000000 43.788605 -13.619600
										CHANNELS 3 Xrotation Yrotation Zrotation
										End Site
										{
											OFFSET 0 0 0
										}
									}
								}
							}
						}
						JOINT LeftShoulder_virtual
						{
							OFFSET 0.000000 0.000000 0.000000
							CHANNELS 3 Xrotation Yrotation Zrotation
							JOINT LeftShoulder
							{
								OFFSET 2.196100 4.412489 0.087492
								CHANNELS 3 Xrotation Yrotation Zrotation
								JOINT LeftShoulder_split
								{
									OFFSET 2.196100 4.412489 0.087492
									CHANNELS 3 Xrotation Yrotation Zrotation
									JOINT LeftArm
									{
										OFFSET 8.771219 -2.981674 -0.026999
										CHANNELS 3 Xrotation Yrotation Zrotation
										JOINT LeftForeArm
										{
											OFFSET 8.512804 0.000000 -0.000000
											CHANNELS 3 Xrotation Yrotation Zrotation
											JOINT LeftHand
											{
												OFFSET 18.484802 0.000000 -0.000000
												CHANNELS 3 Xrotation Yrotation Zrotation
												End Site
												{
													OFFSET 0 0 0
												}
											}
										}
									}
								}
							}
						}
						JOINT RightShoulder_virtual
						{
							OFFSET 0.000000 0.000000 0.000000
							CHANNELS 3 Xrotation Yrotation Zrotation
							JOINT RightShoulder
							{
								OFFSET -2.196100 4.412496 0.070690
								CHANNELS 3 Xrotation Yrotation Zrotation
								JOINT RightShoulder_split
								{
									OFFSET -2.196100 4.412496 0.070690
									CHANNELS 3 Xrotation Yrotation Zrotation
									JOINT RightArm
									{
										OFFSET -8.771282 -2.981682 -0.094208
										CHANNELS 3 Xrotation Yrotation Zrotation
										JOINT RightForeArm
										{
											OFFSET -8.494598 0.000000 0.000000
											CHANNELS 3 Xrotation Yrotation Zrotation
											JOINT RightHand
											{
												OFFSET -18.483803 0.000000 0.000001
												CHANNELS 3 Xrotation Yrotation Zrotation
												End Site
												{
													OFFSET 0 0 0
												}
											}
										}
									}
								}
							}
						}
					}
				}
			}
		}
	}
}
MOTION
Frames: 4
Frame Time: 0.03333333
19.564579 26.096102 93.561005 0.000000 0.000000 0.000000 -3.203438 21.142099 -12.853641 -2.045210 3.720255 -7.346948 77.451231 2.226858 0.348832 -0.567485 1.945002 25.464950 -0.434182 -0.416162 -0.717315 0.000000 0.000000 0.000000 0.298050 23.790165 -13.564651 -46.207377 15.263690 5.584654 39.656604 2.795983 -3.749563 5.004559 4.669491 12.736114 -7.554056 -3.967221 -1.292326 0.000000 0.000000 0.000000 -1.230203 25.979541 -12.515786 3.084694 -10.442301 -2.631030 3.399397 -2.641409 1.248712 -0.266581 0.265722 -0.014067 0.000000 0.000000 0.000000 2.524394 -4.046195 2.220032 -1.810323 3.048049 0.765092 -10.323459 34.249342 4.856471 0.000000 0.000000 0.000000 1.682414 -3.116394 1.660908 -0.522350 -0.388465 -9.117342 1.983526 3.905005 0.122994 17.171466 -13.255203 -46.053257 36.917862 -85.777101 32.839631 0.000000 0.000000 0.000000 2.847282 -3.645493 1.737086 0.459509 -4.501332 8.092200 2.622272 8.479968 -1.614242 36.750632 11.248171 50.844454 179.902101 84.916737 177.584850 0.000000 0.000000 0.000000 
21.569632 25.146744 98.368446 0.000000 0.000000 0.000000 -5.319375 19.958171 -13.268415 -23.056582 7.585957 -6.316269 94.049144 3.359772 1.356134 -2.740781 -1.159318 27.399442 -7.002721 -0.906025 1.260293 0.000000 0.000000 0.000000 -0.484725 26.583096 -14.721537 -34.986729 11.876555 6.172255 55.013048 -0.339515 -1.316635 -22.445374 1.961211 3.071599 -6.072475 -3.867482 -0.235378 0.000000 0.000000 0.000000 -4.858485 27.251106 -12.426350 6.067588 -7.272009 -2.168754 3.881646 -1.061843 1.447232 -0.508158 0.875230 0.091322 0.000000 0.000000 0.000000 3.088875 -2.515083 2.478725 -2.986154 2.755027 0.756753 -10.072717 31.801931 4.683971 0.000000 0.000000 0.000000 2.636478 -1.454551 1.555335 -0.326327 0.182195 -9.698938 1.192206 2.125137 -1.841433 27.577095 -15.635478 -50.692148 13.594388 -71.603120 9.467890 0.000000 0.000000 0.000000 3.716329 -1.894033 1.738271 -0.000518 -2.936391 10.539559 2.745884 7.543004 -0.273762 22.793007 17.752365 52.109576 -127.683324 89.358668 124.620408 0.000000 0.000000 0.000000 
23.084154 24.550619 102.262444 0.000000 0.000000 0.000000 -6.407564 20.152936 -13.653120 -44.511779 10.438352 -3.773430 105.476508 4.580349 1.917745 -5.503650 -4.042256 29.151951 -14.655945 -1.433386 2.366690 0.000000 0.000000 0.000000 -1.451289 29.489775 -15.174544 -27.676476 9.312124 5.698679 69.558203 -0.024778 1.079919 -40.755520 3.602421 -1.482149 -6.226425 -3.493607 0.404545 0.000000 0.000000 0.000000 -7.861698 28.256382 -12.384608 8.458036 -4.059368 -1.527204 4.432717 0.331779 1.527677 0.010006 1.420000 0.227159 0.000000 0.000000 0.000000 3.814913 -1.003599 2.539916 -3.377784 2.466178 0.839137 -9.683761 29.206729 4.741881 0.000000 0.000000 0.000000 3.516394 0.085085 1.550310 -0.172165 0.838802 -9.018548 0.038163 0.519018 -2.882105 34.371824 -17.611021 -54.493681 10.182017 -62.033663 6.989932 0.000000 0.000000 0.000000 4.601529 -0.335286 1.592528 -0.440897 -2.280911 11.942847 3.219786 6.020414 0.184779 8.112964 21.615059 54.823412 -92.126131 89.239980 89.273346 0.000000 0.000000 0.000000 
24.168808 24.239815 104.972321 0.000000 0.000000 0.000000 -5.906884 20.596815 -14.291149 -61.243253 10.454262 -0.626218 111.026289 5.261397 1.770513 -5.308734 -4.352455 29.635077 -17.618007 -1.250332 1.428762 0.000000 0.000000 0.000000 -2.320123 31.335637 -15.387183 -23.513391 8.012164 3.696069 77.550815 3.758179 1.594914 -47.779936 5.480346 0.916563 -9.079480 -3.192975 0.472460 0.000000 0.000000 0.000000 -9.171411 28.687020 -12.936751 9.773054 -1.265080 -0.634937 4.947030 1.295693 1.476008 0.549594 1.973527 0.321355 0.000000 0.000000 0.000000 4.599485 0.193728 2.416354 -3.107343 2.135948 1.127693 -9.478891 27.068810 4.958203 0.000000 0.000000 0.000000 4.143431 1.289119 1.626601 -0.092835 1.364295 -7.641692 -0.901983 -0.816277 -2.217651 37.756220 -17.773119 -57.500596 7.568348 -59.480368 5.993284 0.000000 0.000000 0.000000 5.272284 0.752970 1.350342 -0.635564 -2.328676 12.088416 3.789979 4.455504 0.221480 -3.028784 22.612514 57.075953 -158.443450 87.824799 156.474689 0.000000 0.000000 0.000000 
